<?xml version="1.0" encoding="UTF-8" standalone="no"?>
<svg
   height="27"
   viewBox="0 -960 1080 1080"
   width="27"
   version="1.1"
   id="svg1"
   sodipodi:docname="icon.svg"
   inkscape:version="1.3.2 (091e20e, 2023-11-25, custom)"
   inkscape:export-filename="..\Documents\Github Repos\tweaks-for-google-classroom\icons\icon48.png"
   inkscape:export-xdpi="455.11111"
   inkscape:export-ydpi="455.11111"
   xmlns:inkscape="http://www.inkscape.org/namespaces/inkscape"
   xmlns:sodipodi="http://sodipodi.sourceforge.net/DTD/sodipodi-0.dtd"
   xmlns="http://www.w3.org/2000/svg"
   xmlns:svg="http://www.w3.org/2000/svg">
  <sodipodi:namedview
     id="namedview1"
     pagecolor="#ffffff"
     bordercolor="#000000"
     borderopacity="0.25"
     inkscape:showpageshadow="2"
     inkscape:pageopacity="0.0"
     inkscape:pagecheckerboard="0"
     inkscape:deskcolor="#d1d1d1"
     inkscape:zoom="22.627417"
     inkscape:cx="-0.90598056"
     inkscape:cy="20.970135"
     inkscape:window-width="2256"
     inkscape:window-height="1398"
     inkscape:window-x="-11"
     inkscape:window-y="-11"
     inkscape:window-maximized="1"
     inkscape:current-layer="svg1" />
  <defs
     id="defs1" />
  <g
     id="g1"
     transform="translate(9.3272276,27.5)">
    <path
       d="m 480.68058,12.500003 -16,-128.000003 -47,-27 -119,50 -110,-190 103,-78 v -54 l -103,-78 110,-190 119,50 47,-27 16,-128 h 220 l 16,128 47,27 119,-50 110,190 -103,78 -1,54 103,78 -110,190 -118,-50 -47,27 -16,128.000003 z m 112,-260.000003 99,-41 41,-99 -41,-99 -99,-41 -99.5,41 -40.5,99 40.5,99 z"
       id="path2"
       sodipodi:nodetypes="cccccccccccccccccccccccccccccccccc"
       style="display:none;fill:#ffcc00;stroke:#d4aa00" />
    <path
       id="path35"
       style="display:inline;fill:#e67700;fill-opacity:1;stroke:#000000;stroke-width:105;stroke-linejoin:miter;stroke-dasharray:none;stroke-opacity:1"
       d="m 360.71183,-907.5 -16.01563,127.96875 -47.03124,27.03125 -118.98438,-50 -109.999997,190 102.968747,102.96875 v 29.0625 L 68.680583,-402.5 l 109.999997,190 120,120 60.70312,-25.54688 1.32813,10.54688 120,120 h 220 l 15.9375,-127.96875 47.03125,-27.03125 117.96875,50 110,-190 -102.5,-102.5 0.54687,-29.53125 102.96876,-77.96875 -110,-190 -120,-120 -60.625,25.46875 -1.32813,-10.46875 -120,-120 z m 231.95313,380 14.14062,5.85938 5.85938,14.14062 -41.01563,98.98438 -98.98437,41.01562 -14.21876,-5.85938 -5.78124,-14.14062 40.54687,-98.98438 z" />
    <g
       id="g18"
       style="display:inline"
       transform="translate(48.680583,32.5)"
       inkscape:label="g18">
      <path
         d="m 416,-148 -47,-27 -120,-120 47,27 120,120"
         style="fill:#663500;fill-opacity:1;stroke:#000000;stroke-width:1px;stroke-linejoin:round;stroke-opacity:0"
         id="path3" />
      <path
         d="m 369,-175 -119,50 -120,-120 119,-50 120,120"
         style="fill:#804200;fill-opacity:1;stroke:#000000;stroke-width:1px;stroke-linejoin:round;stroke-opacity:0"
         id="path4" />
      <path
         d="m 243,-447 -103,-78 -120,-120 103,78 120,120"
         style="fill:#804200;fill-opacity:1;stroke:#000000;stroke-width:1px;stroke-linejoin:round;stroke-opacity:0"
         id="path5" />
      <path
         d="m 652,-820 16,128 -120,-120 -16,-128 120,120"
         style="fill:#fab005;fill-opacity:1;stroke:#000000;stroke-width:1px;stroke-linejoin:round;stroke-opacity:0"
         id="path6" />
      <path
         d="M 834,-715 944,-525 824,-645 714,-835 834,-715"
         style="fill:#fab005;fill-opacity:1;stroke:#000000;stroke-width:1px;stroke-linejoin:round;stroke-opacity:0"
         id="path7" />
      <path
         d="m 944,-525 -103,78 -120,-120 103,-78 120,120"
         style="fill:#e67700;fill-opacity:1;stroke:#000000;stroke-width:1px;stroke-linejoin:round;stroke-opacity:0"
         id="path8" />
      <path
         d="m 841,-447 -1,54 -120,-120 1,-54 120,120"
         style="fill:#f08c00;fill-opacity:1;stroke:#000000;stroke-width:1px;stroke-linejoin:round;stroke-opacity:0"
         id="path9" />
      <path
         d="M 943,-315 833,-125 713,-245 823,-435 943,-315"
         style="fill:#e67700;fill-opacity:1;stroke:#000000;stroke-width:1px;stroke-linejoin:round;stroke-opacity:0"
         id="path10" />
      <path
         d="m 833,-125 -118,-50 -120,-120 118,50 120,120"
         style="fill:#663500;fill-opacity:1;stroke:#000000;stroke-width:1px;stroke-linejoin:round;stroke-opacity:0"
         id="path11" />
      <path
         d="m 715,-175 -47,27 -120,-120 47,-27 120,120"
         style="fill:#804200;fill-opacity:1;stroke:#000000;stroke-width:1px;stroke-linejoin:round;stroke-opacity:0"
         id="path12" />
      <path
         d="m 668,-148 -16,128 -120,-120 16,-128 120,120"
         style="fill:#b35c00;fill-opacity:1;stroke:#000000;stroke-width:1px;stroke-linejoin:round;stroke-opacity:0"
         id="path13" />
      <path
         d="M 652,-20 H 432 L 312,-140 h 220 l 120,120"
         style="fill:#804200;fill-opacity:1;stroke:#000000;stroke-width:1px;stroke-linejoin:round;stroke-opacity:0"
         id="path14" />
      <path
         d="m 643,-519 -99,-41 -120,-120 99,41 120,120"
         style="fill:#663500;fill-opacity:1;stroke:#000000;stroke-width:1px;stroke-linejoin:round;stroke-opacity:0"
         id="path15" />
      <path
         d="m 544,-560 -99.5,41 -120,-120 99.5,-41 120,120"
         style="fill:#804200;fill-opacity:1;stroke:#000000;stroke-width:1px;stroke-linejoin:round;stroke-opacity:0"
         id="path16" />
      <path
         d="m 444.5,-519 -40.5,99 -120,-120 40.5,-99 120,120"
         style="fill:#b35c00;fill-opacity:1;stroke:#000000;stroke-width:1px;stroke-linejoin:round;stroke-opacity:0"
         id="path17" />
      <path
         d="m 404,-420 40.5,99 -120,-120 -40.5,-99 120,120"
         style="fill:#e67700;fill-opacity:1;stroke:#000000;stroke-width:1px;stroke-linejoin:round;stroke-opacity:0"
         id="path18" />
    </g>
    <path
       d="m 360.68058,-107.5 -16,-128 -47,-27 -119,50 -109.999997,-190 102.999997,-78 v -54 l -102.999997,-78 109.999997,-190 119,50 47,-27 16,-128 h 220 l 16,128 47,27 119,-50 110,190 -103,78 -1,54 103,78 -110,190 -118,-50 -47,27 -16,128 z m 112,-260 99,-41 41,-99 -41,-99 -99,-41 -99.5,41 -40.5,99 40.5,99 z"
       id="path19"
       sodipodi:nodetypes="cccccccccccccccccccccccccccccccccc"
       style="display:inline;fill:#ffd43b" />
  </g>
</svg>
